<?xml version="1.0" encoding="UTF-8" standalone="no"?>
<!-- Created with Inkscape (http://www.inkscape.org/) -->

<svg
   width="142.11897mm"
   height="38.050907mm"
   viewBox="0 0 142.11897 38.050907"
   version="1.1"
   id="svg1"
   xml:space="preserve"
   xmlns="http://www.w3.org/2000/svg"
   xmlns:svg="http://www.w3.org/2000/svg"><defs
     id="defs1" /><g
     id="layer1"
     transform="translate(-28.237036,-53.396225)"><path
       id="path7"
       style="fill:#ffffff;stroke-width:0.984498"
       d="m 64.904049,53.396224 v 3.45922 3.459221 h 15.220259 15.22026 v 15.384074 15.384073 l 3.503145,-3.19412 3.553787,-3.297473 0.0439,-12.189437 -0.008,-12.087117 h 30.55266 30.55214 l 3.40702,-3.459221 3.40703,-3.45922 h -52.72598 z m -36.667013,8.301819 v 11.761039 11.761556 h 3.987354 3.987353 l 9.66711,-9.685714 c 5.316896,-5.32709 9.904767,-9.685713 10.195244,-9.685713 0.290478,0 0.528133,4.358623 0.528133,9.685713 v 9.685714 h 3.112988 3.113505 V 73.459082 61.698043 h -6.38824 -6.388241 l -7.448124,7.425386 -7.448641,7.425387 v -7.425387 -7.425386 h -3.45922 z m 36.667013,0 v 11.761039 11.761556 h 11.268562 11.268047 l 3.407027,-3.45922 3.407027,-3.459221 H 82.692627 71.130542 v -4.843115 -4.842598 h 8.44858 8.449097 l 2.966227,-2.911451 c 1.631556,-1.60125 2.966744,-3.15794 2.966744,-3.45922 0,-0.30128 -6.538192,-0.54777 -14.528829,-0.54777 z m 38.880831,0 v 11.761039 11.761556 h 13.07569 13.07568 V 73.459082 61.698043 h -13.07568 z m 27.53475,0 v 11.761039 11.761556 h 3.45922 3.45922 v -5.012097 -5.012097 l 8.12561,8.125085 8.12508,8.125602 h 5.1816 5.18159 l -8.27908,-8.300785 -8.27856,-8.300269 6.54637,-6.574275 6.54637,-6.573759 h -15.03371 z m -20.82973,6.918441 h 6.37067 6.37015 v 4.842598 4.843115 h -6.37015 -6.37067 v -4.843115 z m 27.74817,0 h 3.11351 c 1.71227,0 3.11299,0.118096 3.11299,0.262516 0,0.14442 -1.40072,1.410692 -3.11299,2.813782 l -3.11351,2.551265 v -2.813782 z" /></g></svg>
